<svg id="Sx6.F4.pic1" class="ltx_picture ltx_centering" height="84.14" overflow="visible" version="1.1" viewbox="0 0 566.54 84.14" width="566.54"><g style="--ltx-stroke-color:#000000;" stroke="#000000" transform="translate(0,84.14) matrix(1 0 0 -1 0 0) translate(53.63,0) translate(0,22.14)"><g style="--ltx-fill-color:#F9F9F9;" fill="#F9F9F9" stroke-width="0.7pt"><path d="M 50.38 21.65 L -50.38 21.65 C -51.91 21.65 -53.15 20.41 -53.15 18.89 L -53.15 -18.89 C -53.15 -20.41 -51.91 -21.65 -50.38 -21.65 L 50.38 -21.65 C 51.91 -21.65 53.15 -20.41 53.15 -18.89 L 53.15 18.89 C 53.15 20.41 51.91 21.65 50.38 21.65 Z M -53.15 -21.65" /></g><g style="--ltx-stroke-color:#000000;--ltx-fill-color:#000000;" fill="#000000" stroke="#000000" stroke-width="0.7pt" transform="matrix(1.0 0.0 0.0 1.0 -39.32 -11.4)"><g class="ltx_tikzmatrix" transform="matrix(1 0 0 -1 0 26.56)"><g class="ltx_tikzmatrix_row" transform="matrix(1 0 0 1 0 17.95)"><g class="ltx_tikzmatrix_col ltx_nopad_r" transform="matrix(1 0 0 -1 0 0)"><g class="ltx_tikzmatrix" transform="matrix(1 0 0 -1 0 17.95)"><g class="ltx_tikzmatrix_row" transform="matrix(1 0 0 1 0 7.69)"><g class="ltx_tikzmatrix_col ltx_nopad_r" transform="matrix(1 0 0 -1 0 0)"><foreignobject style="--ltx-fo-width:5.8em;--ltx-fo-height:0.57em;--ltx-fo-depth:0.16em;font-size:9.8pt;" height="9.84" overflow="visible" transform="matrix(1 0 0 -1 0 7.69)" width="78.63"><span class="ltx_foreignobject_container"><span class="ltx_foreignobject_content"><span id="Sx6.F4.pic1.1" class="ltx_text ltx_font_bold" style="font-size:80%;">1. Reproduce</span></span></span></foreignobject></g></g><g class="ltx_tikzmatrix_row" transform="matrix(1 0 0 1 0 17.95)"><g class="ltx_tikzmatrix_col ltx_nopad_r" transform="matrix(1 0 0 -1 4.32 0)"><foreignobject style="--ltx-fo-width:6.37em;--ltx-fo-height:0.61em;--ltx-fo-depth:0em;font-size:7.97pt;" height="6.73" overflow="visible" transform="matrix(1 0 0 -1 0 6.73)" width="70.28"><span class="ltx_foreignobject_container"><span class="ltx_foreignobject_content"><span id="Sx6.F4.pic1.2" class="ltx_text" style="font-size:70%;">observe failure</span></span></span></foreignobject></g></g></g></g></g><g class="ltx_tikzmatrix_row" transform="matrix(1 0 0 1 0 24.68)"><g class="ltx_tikzmatrix_col ltx_nopad_r" transform="matrix(1 0 0 -1 8.73 0)"><foreignobject style="--ltx-fo-width:5.36em;--ltx-fo-height:0.61em;--ltx-fo-depth:0.17em;font-size:7.97pt;" height="8.61" overflow="visible" transform="matrix(1 0 0 -1 0 6.73)" width="59.1"><span class="ltx_foreignobject_container"><span class="ltx_foreignobject_content"><span id="Sx6.F4.pic1.3" class="ltx_text" style="font-size:70%;">vs. expected</span></span></span></foreignobject></g></g></g></g><g style="--ltx-fill-color:#F2F2F2;" fill="#F2F2F2" stroke-width="0.7pt"><path d="M 164.74 21.65 L 63.97 21.65 C 62.44 21.65 61.2 20.41 61.2 18.89 L 61.2 -18.89 C 61.2 -20.41 62.44 -21.65 63.97 -21.65 L 164.74 -21.65 C 166.27 -21.65 167.5 -20.41 167.5 -18.89 L 167.5 18.89 C 167.5 20.41 166.27 21.65 164.74 21.65 Z M 61.2 -21.65" /></g><g style="--ltx-stroke-color:#000000;--ltx-fill-color:#000000;" fill="#000000" stroke="#000000" stroke-width="0.7pt" transform="matrix(1.0 0.0 0.0 1.0 75.37 -11.26)"><g class="ltx_tikzmatrix" transform="matrix(1 0 0 -1 0 26.29)"><g class="ltx_tikzmatrix_row" transform="matrix(1 0 0 1 0 15.8)"><g class="ltx_tikzmatrix_col ltx_nopad_r" transform="matrix(1 0 0 -1 3.11 0)"><g class="ltx_tikzmatrix" transform="matrix(1 0 0 -1 0 17.68)"><g class="ltx_tikzmatrix_row" transform="matrix(1 0 0 1 0 7.69)"><g class="ltx_tikzmatrix_col ltx_nopad_r" transform="matrix(1 0 0 -1 0 0)"><foreignobject style="--ltx-fo-width:5.29em;--ltx-fo-height:0.57em;--ltx-fo-depth:0em;font-size:9.8pt;" height="7.69" overflow="visible" transform="matrix(1 0 0 -1 0 7.69)" width="71.75"><span class="ltx_foreignobject_container"><span class="ltx_foreignobject_content"><span id="Sx6.F4.pic1.4" class="ltx_text ltx_font_bold" style="font-size:80%;">2. Attribute</span></span></span></foreignobject></g></g><g class="ltx_tikzmatrix_row" transform="matrix(1 0 0 1 0 15.8)"><g class="ltx_tikzmatrix_col ltx_nopad_r" transform="matrix(1 0 0 -1 1.37 0)"><foreignobject style="--ltx-fo-width:6.26em;--ltx-fo-height:0.61em;--ltx-fo-depth:0.17em;font-size:7.97pt;" height="8.61" overflow="visible" transform="matrix(1 0 0 -1 0 6.73)" width="69.01"><span class="ltx_foreignobject_container"><span class="ltx_foreignobject_content"><span id="Sx6.F4.pic1.5" class="ltx_text" style="font-size:70%;">classify failure</span></span></span></foreignobject></g></g></g></g></g><g class="ltx_tikzmatrix_row" transform="matrix(1 0 0 1 0 24.41)"><g class="ltx_tikzmatrix_col ltx_nopad_r" transform="matrix(1 0 0 -1 0 0)"><foreignobject style="--ltx-fo-width:7.07em;--ltx-fo-height:0.61em;--ltx-fo-depth:0.17em;font-size:7.97pt;" height="8.61" overflow="visible" transform="matrix(1 0 0 -1 0 6.73)" width="77.97"><span class="ltx_foreignobject_container"><span class="ltx_foreignobject_content"><span id="Sx6.F4.pic1.6" class="ltx_text" style="font-size:70%;">type &amp; evidence</span></span></span></foreignobject></g></g></g></g><g style="--ltx-fill-color:#ECECEC;" fill="#ECECEC" stroke-width="0.7pt"><path d="M 279.09 21.65 L 178.33 21.65 C 176.8 21.65 175.56 20.41 175.56 18.89 L 175.56 -18.89 C 175.56 -20.41 176.8 -21.65 178.33 -21.65 L 279.09 -21.65 C 280.62 -21.65 281.86 -20.41 281.86 -18.89 L 281.86 18.89 C 281.86 20.41 280.62 21.65 279.09 21.65 Z M 175.56 -21.65" /></g><g style="--ltx-stroke-color:#000000;--ltx-fill-color:#000000;" fill="#000000" stroke="#000000" stroke-width="0.7pt" transform="matrix(1.0 0.0 0.0 1.0 183.91 -11.26)"><g class="ltx_tikzmatrix" transform="matrix(1 0 0 -1 0 26.29)"><g class="ltx_tikzmatrix_row" transform="matrix(1 0 0 1 0 15.8)"><g class="ltx_tikzmatrix_col ltx_nopad_r" transform="matrix(1 0 0 -1 13.72 0)"><g class="ltx_tikzmatrix" transform="matrix(1 0 0 -1 0 17.68)"><g class="ltx_tikzmatrix_row" transform="matrix(1 0 0 1 0 7.69)"><g class="ltx_tikzmatrix_col ltx_nopad_r" transform="matrix(1 0 0 -1 13.84 0)"><foreignobject style="--ltx-fo-width:2.54em;--ltx-fo-height:0.57em;--ltx-fo-depth:0em;font-size:9.8pt;" height="7.69" overflow="visible" transform="matrix(1 0 0 -1 0 7.69)" width="34.5"><span class="ltx_foreignobject_container"><span class="ltx_foreignobject_content"><span id="Sx6.F4.pic1.7" class="ltx_text ltx_font_bold" style="font-size:80%;">3. Fix</span></span></span></foreignobject></g></g><g class="ltx_tikzmatrix_row" transform="matrix(1 0 0 1 0 15.8)"><g class="ltx_tikzmatrix_col ltx_nopad_r" transform="matrix(1 0 0 -1 0 0)"><foreignobject style="--ltx-fo-width:5.64em;--ltx-fo-height:0.61em;--ltx-fo-depth:0.17em;font-size:7.97pt;" height="8.61" overflow="visible" transform="matrix(1 0 0 -1 0 6.73)" width="62.17"><span class="ltx_foreignobject_container"><span class="ltx_foreignobject_content"><span id="Sx6.F4.pic1.8" class="ltx_text" style="font-size:70%;">targeted edit</span></span></span></foreignobject></g></g></g></g></g><g class="ltx_tikzmatrix_row" transform="matrix(1 0 0 1 0 24.41)"><g class="ltx_tikzmatrix_col ltx_nopad_r" transform="matrix(1 0 0 -1 0 0)"><foreignobject style="--ltx-fo-width:8.18em;--ltx-fo-height:0.61em;--ltx-fo-depth:0.17em;font-size:7.97pt;" height="8.61" overflow="visible" transform="matrix(1 0 0 -1 0 6.73)" width="90.2"><span class="ltx_foreignobject_container"><span class="ltx_foreignobject_content"><span id="Sx6.F4.pic1.9" class="ltx_text" style="font-size:70%;">to attributed layer</span></span></span></foreignobject></g></g></g></g><g style="--ltx-fill-color:#E6E6E6;" fill="#E6E6E6" stroke-width="0.7pt"><path d="M 395.3 21.65 L 292.68 21.65 C 291.15 21.65 289.91 20.41 289.91 18.89 L 289.91 -18.89 C 289.91 -20.41 291.15 -21.65 292.68 -21.65 L 395.3 -21.65 C 396.83 -21.65 398.07 -20.41 398.07 -18.89 L 398.07 18.89 C 398.07 20.41 396.83 21.65 395.3 21.65 Z M 289.91 -21.65" /></g><g style="--ltx-stroke-color:#000000;--ltx-fill-color:#000000;" fill="#000000" stroke="#000000" stroke-width="0.7pt" transform="matrix(1.0 0.0 0.0 1.0 294.06 -11.4)"><g class="ltx_tikzmatrix" transform="matrix(1 0 0 -1 0 26.56)"><g class="ltx_tikzmatrix_row" transform="matrix(1 0 0 1 0 17.95)"><g class="ltx_tikzmatrix_col ltx_nopad_r" transform="matrix(1 0 0 -1 1.41 0)"><g class="ltx_tikzmatrix" transform="matrix(1 0 0 -1 0 17.95)"><g class="ltx_tikzmatrix_row" transform="matrix(1 0 0 1 0 7.69)"><g class="ltx_tikzmatrix_col ltx_nopad_r" transform="matrix(1 0 0 -1 22.43 0)"><foreignobject style="--ltx-fo-width:3.85em;--ltx-fo-height:0.57em;--ltx-fo-depth:0.16em;font-size:9.8pt;" height="9.84" overflow="visible" transform="matrix(1 0 0 -1 0 7.69)" width="52.16"><span class="ltx_foreignobject_container"><span class="ltx_foreignobject_content"><span id="Sx6.F4.pic1.10" class="ltx_text ltx_font_bold" style="font-size:80%;">4. Verify</span></span></span></foreignobject></g></g><g class="ltx_tikzmatrix_row" transform="matrix(1 0 0 1 0 17.95)"><g class="ltx_tikzmatrix_col ltx_nopad_r" transform="matrix(1 0 0 -1 0 0)"><foreignobject style="--ltx-fo-width:8.85em;--ltx-fo-height:0.61em;--ltx-fo-depth:0em;font-size:7.97pt;" height="6.73" overflow="visible" transform="matrix(1 0 0 -1 0 6.73)" width="97.62"><span class="ltx_foreignobject_container"><span class="ltx_foreignobject_content"><span id="Sx6.F4.pic1.11" class="ltx_text" style="font-size:70%;">deterministic checks</span></span></span></foreignobject></g></g></g></g></g><g class="ltx_tikzmatrix_row" transform="matrix(1 0 0 1 0 24.68)"><g class="ltx_tikzmatrix_col ltx_nopad_r" transform="matrix(1 0 0 -1 0 0)"><foreignobject style="--ltx-fo-width:9.08em;--ltx-fo-height:0.61em;--ltx-fo-depth:0.17em;font-size:7.97pt;" height="8.61" overflow="visible" transform="matrix(1 0 0 -1 0 6.73)" width="100.15"><span class="ltx_foreignobject_container"><span class="ltx_foreignobject_content"><math id="Sx6.F4.pic1.m1" class="ltx_Math" alttext="+" display="inline" intent=":literal"><semantics><mo mathsize="0.800em">+</mo><annotation encoding="application/x-tex">+</annotation></semantics></math><span id="Sx6.F4.pic1.12" class="ltx_text" style="font-size:70%;">preserved behavior</span></span></span></foreignobject></g></g></g></g><g style="--ltx-fill-color:#DFDFDF;" fill="#DFDFDF" stroke-width="0.7pt"><path d="M 509.65 21.65 L 408.89 21.65 C 407.36 21.65 406.12 20.41 406.12 18.89 L 406.12 -18.89 C 406.12 -20.41 407.36 -21.65 408.89 -21.65 L 509.65 -21.65 C 511.18 -21.65 512.42 -20.41 512.42 -18.89 L 512.42 18.89 C 512.42 20.41 511.18 21.65 509.65 21.65 Z M 406.12 -21.65" /></g><g style="--ltx-stroke-color:#000000;--ltx-fill-color:#000000;" fill="#000000" stroke="#000000" stroke-width="0.7pt" transform="matrix(1.0 0.0 0.0 1.0 422.79 -11.35)"><g class="ltx_tikzmatrix" transform="matrix(1 0 0 -1 0 26.46)"><g class="ltx_tikzmatrix_row" transform="matrix(1 0 0 1 0 17.86)"><g class="ltx_tikzmatrix_col ltx_nopad_r" transform="matrix(1 0 0 -1 8.18 0)"><g class="ltx_tikzmatrix" transform="matrix(1 0 0 -1 0 17.86)"><g class="ltx_tikzmatrix_row" transform="matrix(1 0 0 1 0 7.6)"><g class="ltx_tikzmatrix_col ltx_nopad_r" transform="matrix(1 0 0 -1 0 0)"><foreignobject style="--ltx-fo-width:4.17em;--ltx-fo-height:0.56em;--ltx-fo-depth:0.16em;font-size:9.8pt;" height="9.75" overflow="visible" transform="matrix(1 0 0 -1 0 7.6)" width="56.6"><span class="ltx_foreignobject_container"><span class="ltx_foreignobject_content"><span id="Sx6.F4.pic1.13" class="ltx_text ltx_font_bold" style="font-size:80%;">5. Report</span></span></span></foreignobject></g></g><g class="ltx_tikzmatrix_row" transform="matrix(1 0 0 1 0 17.86)"><g class="ltx_tikzmatrix_col ltx_nopad_r" transform="matrix(1 0 0 -1 1.31 0)"><foreignobject style="--ltx-fo-width:4.92em;--ltx-fo-height:0.61em;--ltx-fo-depth:0em;font-size:7.97pt;" height="6.73" overflow="visible" transform="matrix(1 0 0 -1 0 6.73)" width="54.27"><span class="ltx_foreignobject_container"><span class="ltx_foreignobject_content"><span id="Sx6.F4.pic1.14" class="ltx_text" style="font-size:70%;">verification</span></span></span></foreignobject></g></g></g></g></g><g class="ltx_tikzmatrix_row" transform="matrix(1 0 0 1 0 24.59)"><g class="ltx_tikzmatrix_col ltx_nopad_r" transform="matrix(1 0 0 -1 0 0)"><foreignobject style="--ltx-fo-width:5.82em;--ltx-fo-height:0.61em;--ltx-fo-depth:0.17em;font-size:7.97pt;" height="8.61" overflow="visible" transform="matrix(1 0 0 -1 0 6.73)" width="64.17"><span class="ltx_foreignobject_container"><span class="ltx_foreignobject_content"><span id="Sx6.F4.pic1.15" class="ltx_text" style="font-size:70%;">report <math id="Sx6.F4.pic1.m2" class="ltx_Math" alttext="+" display="inline" intent=":literal"><semantics><mo>+</mo><annotation encoding="application/x-tex">+</annotation></semantics></math> limits</span></span></span></foreignobject></g></g></g></g><g style="--ltx-fill-color:#000000;" fill="#000000"><g stroke-width="0.7pt"><path style="fill:none" d="M 53.63 0 L 52.54 0" /><g stroke-dasharray="none" stroke-dashoffset="0.0pt" stroke-linejoin="miter" transform="matrix(1.0 0.0 0.0 1.0 52.54 0)"><path d="M 6.24 0 C 5.47 0.19 2.11 1.25 0 2.4 L 0 -2.4 C 2.11 -1.25 5.47 -0.19 6.24 0 Z" /></g></g><g stroke-width="0.7pt"><path style="fill:none" d="M 167.99 0 L 166.9 0" /><g stroke-dasharray="none" stroke-dashoffset="0.0pt" stroke-linejoin="miter" transform="matrix(1.0 0.0 0.0 1.0 166.9 0)"><path d="M 6.24 0 C 5.47 0.19 2.11 1.25 0 2.4 L 0 -2.4 C 2.11 -1.25 5.47 -0.19 6.24 0 Z" /></g></g><g stroke-width="0.7pt"><path style="fill:none" d="M 282.34 0 L 281.25 0" /><g stroke-dasharray="none" stroke-dashoffset="0.0pt" stroke-linejoin="miter" transform="matrix(1.0 0.0 0.0 1.0 281.25 0)"><path d="M 6.24 0 C 5.47 0.19 2.11 1.25 0 2.4 L 0 -2.4 C 2.11 -1.25 5.47 -0.19 6.24 0 Z" /></g></g><g stroke-width="0.7pt"><path style="fill:none" d="M 398.55 0 L 397.46 0" /><g stroke-dasharray="none" stroke-dashoffset="0.0pt" stroke-linejoin="miter" transform="matrix(1.0 0.0 0.0 1.0 397.46 0)"><path d="M 6.24 0 C 5.47 0.19 2.11 1.25 0 2.4 L 0 -2.4 C 2.11 -1.25 5.47 -0.19 6.24 0 Z" /></g></g><g stroke-dasharray="3.0pt,3.0pt" stroke-dashoffset="0.0pt" stroke-width="0.55pt"><g style="--ltx-stroke-color:#808080;--ltx-fill-color:#808080;--ltx-fg-color:#808080;" color="#808080" fill="#808080" stroke="#808080"><path style="fill:none" d="M 343.99 22.14 L 343.99 43.79 L 114.35 43.79 L 114.35 29.63" /></g><g style="--ltx-stroke-color:#808080;--ltx-fill-color:#808080;--ltx-fg-color:#808080;" color="#808080" fill="#808080" stroke="#808080" stroke-dasharray="none" stroke-dashoffset="0.0pt" stroke-linejoin="miter" transform="matrix(0.0 -1.0 1.0 0.0 114.35 29.63)"><path d="M 5.97 0 C 5.24 0.18 2.01 1.19 0 2.29 L 0 -2.29 C 2.01 -1.19 5.24 -0.18 5.97 0 Z" /></g><g style="--ltx-stroke-color:#808080;--ltx-fill-color:#808080;" fill="#808080" stroke="#808080" transform="matrix(1.0 0.0 0.0 1.0 93.82 50.67)"><foreignobject style="--ltx-fo-width:23.41em;--ltx-fo-height:0.58em;--ltx-fo-depth:0.16em;font-size:8.44pt;" height="8.61" overflow="visible" transform="matrix(1 0 0 -1 0 6.73)" width="273.56"><span class="ltx_foreignobject_container"><span class="ltx_foreignobject_content"><span id="Sx6.F4.pic1.16" class="ltx_text ltx_font_italic" style="font-size:70%;--ltx-fg-color:#808080;">re-attribute if verification reveals diagnosis was wrong</span></span></span></foreignobject></g></g></g></g></svg>